<svg xmlns="http://www.w3.org/2000/svg" version="1.1" xmlns:xlink="http://www.w3.org/1999/xlink" xmlns:svgjs="http://svgjs.dev/svgjs" width="1500" height="1500" viewBox="0 0 1500 1500"><rect width="1500" height="1500" fill="#ffffff"></rect><g transform="matrix(0.6666666666666666,0,0,0.6666666666666666,249.85778443113782,249.85778443113765)"><svg viewBox="0 0 334 334" data-background-color="#ffffff" preserveAspectRatio="xMidYMid meet" height="1500" width="1500" xmlns="http://www.w3.org/2000/svg" xmlns:xlink="http://www.w3.org/1999/xlink"><g id="tight-bounds" transform="matrix(1,0,0,1,0.04749999999998522,0.04750000000001364)"><svg viewBox="0 0 333.90454557049503 333.90454557049503" height="333.90454557049503" width="333.90454557049503"><g><svg></svg></g><g><svg viewBox="0 0 333.90454557049503 333.90454557049503" height="333.90454557049503" width="333.90454557049503"><g><path d="M0 166.952c0-92.205 74.747-166.952 166.952-166.952 92.205 0 166.952 74.747 166.953 166.952 0 92.205-74.747 166.952-166.953 166.953-92.205 0-166.952-74.747-166.952-166.953zM166.952 316.63c82.665 0 149.677-67.013 149.678-149.678 0-82.665-67.013-149.677-149.678-149.677-82.665 0-149.677 67.013-149.677 149.677 0 82.665 67.013 149.677 149.677 149.678z" data-fill-palette-color="tertiary" fill="#000000" stroke="transparent"></path><ellipse rx="160.27418187383762" ry="160.27418187383762" cx="166.95227278524752" cy="166.95227278524752" fill="#000000" stroke="transparent" stroke-width="0" fill-opacity="1" data-fill-palette-color="tertiary"></ellipse></g><g transform="matrix(1,0,0,1,93.18057535472423,71.17305217166896)"><svg viewBox="0 0 147.54339486104658 191.55844122715712" height="191.55844122715712" width="147.54339486104658"><g><svg viewBox="0 0 147.54339486104658 191.55844122715712" height="191.55844122715712" width="147.54339486104658"><g><svg viewBox="0 0 147.54339486104658 191.55844122715712" height="191.55844122715712" width="147.54339486104658"><g><svg viewBox="0 0 147.54339486104658 191.55844122715712" height="191.55844122715712" width="147.54339486104658"><g id="textblocktransform"><svg viewBox="0 0 147.54339486104658 191.55844122715712" height="191.55844122715712" width="147.54339486104658" id="textblock"><g><svg viewBox="0 0 147.54339486104658 191.55844122715712" height="191.55844122715712" width="147.54339486104658"><g transform="matrix(1,0,0,1,0,0)"><svg width="147.54339486104658" viewBox="4.45 -30.65 23.8 30.9" height="191.55844122715712" data-palette-color="#ffffff"><path d="M4.45-1.6L4.45-18.1 8.55-18.1 8.55-0.1Q8.25 0 7.75 0.13 7.25 0.25 6.65 0.25L6.65 0.25Q5.55 0.25 5-0.2 4.45-0.65 4.45-1.6L4.45-1.6ZM8.55-28.8L8.55-14.75 4.45-14.75 4.45-30.3Q4.7-30.4 5.23-30.53 5.75-30.65 6.35-30.65L6.35-30.65Q7.45-30.65 8-30.23 8.55-29.8 8.55-28.8L8.55-28.8ZM24.15-1.6L24.15-18.1 28.25-18.1 28.25-0.1Q27.95 0 27.45 0.13 26.95 0.25 26.35 0.25L26.35 0.25Q25.25 0.25 24.7-0.2 24.15-0.65 24.15-1.6L24.15-1.6ZM28.25-28.8L28.25-14.75 24.15-14.75 24.15-30.3Q24.4-30.4 24.93-30.53 25.45-30.65 26.05-30.65L26.05-30.65Q27.15-30.65 27.7-30.23 28.25-29.8 28.25-28.8L28.25-28.8ZM26.3-17.1L26.3-13.7 6.9-13.7 6.9-17.1 26.3-17.1Z" opacity="1" transform="matrix(1,0,0,1,0,0)" fill="#ffffff" class="wordmark-text-0" data-fill-palette-color="quaternary" id="text-0"></path></svg></g></svg></g></svg></g></svg></g><g></g></svg></g></svg></g></svg></g></svg></g><defs></defs></svg><rect width="333.90454557049503" height="333.90454557049503" fill="none" stroke="none" visibility="hidden"></rect></g></svg></g></svg>